<?xml version="1.0" encoding="utf-8"?>
<!-- Generator: Adobe Illustrator 22.1.0, SVG Export Plug-In . SVG Version: 6.00 Build 0)  -->
<svg version="1.1" id="Layer_1" xmlns="http://www.w3.org/2000/svg" xmlns:xlink="http://www.w3.org/1999/xlink" x="0px" y="0px"
	 viewBox="0 0 450 450" style="enable-background:new 0 0 450 450;" xml:space="preserve">
<style type="text/css">
	.st0{fill:#1A1A1A;}
</style>
<g>
	<g>
		<path class="st0" d="M445,227.5c0,0.2-0.1,0.3-0.1,0.5c0,0.1-0.1,0.2-0.1,0.2c-0.1,0.2-0.2,0.4-0.3,0.6c0,0.1-0.1,0.1-0.1,0.2
			c-0.2,0.2-0.3,0.5-0.5,0.7c0,0-0.1,0.1-0.2,0.1c-0.2,0.2-0.4,0.4-0.6,0.5c-0.1,0.1-0.2,0.2-0.3,0.2c-0.2,0.1-0.4,0.3-0.6,0.4
			c-0.1,0.1-0.3,0.2-0.4,0.3c-0.2,0.1-0.4,0.3-0.6,0.4c-0.1,0.1-0.3,0.2-0.4,0.3c-0.2,0.1-0.5,0.3-0.7,0.4c-0.2,0.1-0.3,0.2-0.5,0.2
			c-0.3,0.1-0.6,0.3-0.9,0.4c-0.2,0.1-0.3,0.1-0.5,0.2c-0.4,0.2-0.8,0.4-1.3,0.5c-0.1,0-0.1,0.1-0.2,0.1c-0.5,0.2-1.1,0.4-1.7,0.6
			c-0.2,0.1-0.3,0.1-0.5,0.2c-0.4,0.1-0.8,0.3-1.3,0.4c-0.2,0.1-0.5,0.2-0.7,0.2c-0.4,0.1-0.8,0.3-1.2,0.4c-0.3,0.1-0.5,0.2-0.8,0.2
			c-0.4,0.1-0.9,0.2-1.3,0.4c-0.3,0.1-0.6,0.2-0.9,0.2c-0.5,0.1-0.9,0.2-1.4,0.4c-0.3,0.1-0.6,0.1-0.9,0.2c-0.6,0.1-1.1,0.3-1.7,0.4
			c-0.3,0.1-0.5,0.1-0.7,0.2c-0.8,0.2-1.7,0.4-2.6,0.6c-0.1,0-0.2,0-0.3,0.1c-0.8,0.2-1.7,0.4-2.6,0.5c-0.3,0.1-0.6,0.1-1,0.2
			c-0.7,0.1-1.4,0.3-2.1,0.4c-0.3,0.1-0.7,0.1-1,0.2c-0.9,0.2-1.9,0.3-2.8,0.5c-0.2,0-0.4,0.1-0.6,0.1c-1.1,0.2-2.3,0.4-3.5,0.6
			c-0.3,0-0.6,0.1-0.9,0.1c-1.1,0.2-2.2,0.3-3.4,0.5c-0.3,0-0.6,0.1-0.9,0.1c-1.4,0.2-2.8,0.4-4.2,0.6c-0.2,0-0.5,0.1-0.7,0.1
			c-1.6,0.2-3.2,0.4-4.8,0.6c-0.2,0-0.3,0-0.5,0.1c-1.7,0.2-3.5,0.4-5.2,0.6c-0.4,0.1-0.9,0.1-1.3,0.2c-0.6,0.1-1.2,0.1-1.8,0.2
			c-0.6,0.1-1.2,0.1-1.8,0.2c-0.6,0.1-1.3,0.1-1.9,0.2c-0.6,0.1-1.2,0.1-1.9,0.2c-0.6,0.1-1.3,0.1-1.9,0.2c-0.6,0.1-1.3,0.1-1.9,0.2
			c-0.7,0.1-1.3,0.1-2,0.2c-0.6,0.1-1.2,0.1-1.8,0.2c-1.1,0.1-2.3,0.2-3.4,0.3c-0.4,0-0.8,0.1-1.2,0.1c-1.6,0.1-3.1,0.3-4.7,0.4
			c-0.3,0-0.7,0.1-1,0.1c-1.3,0.1-2.6,0.2-3.9,0.3c-0.5,0-1.1,0.1-1.6,0.1c-1.1,0.1-2.3,0.2-3.4,0.3c-0.5,0-1,0.1-1.5,0.1
			c-2.1,0.2-4.3,0.3-6.4,0.5c-0.4,0-0.8,0.1-1.1,0.1c-2.2,0.2-4.4,0.3-6.6,0.4c-0.1,0-0.2,0-0.4,0c-2.3,0.1-4.6,0.3-7,0.4
			c-0.4,0-0.9,0.1-1.3,0.1c-2.3,0.1-4.6,0.3-6.9,0.4c-0.5,0-0.9,0-1.4,0.1c-1.9,0.1-3.9,0.2-5.9,0.3c-0.4,0-0.7,0-1.1,0.1
			c-2.2,0.1-4.5,0.2-6.7,0.3c-0.5,0-1,0-1.6,0.1c-2.1,0.1-4.2,0.2-6.4,0.3c-0.2,0-0.4,0-0.7,0c-2.3,0.1-4.6,0.2-7,0.2
			c-0.5,0-0.9,0-1.4,0c-3.3,0.1-6.6,0.2-10,0.3c-0.4,0-0.8,0-1.2,0c-3.4,0.1-6.9,0.2-10.3,0.2c-0.4,0-0.8,0-1.2,0
			c-2.1,0-4.2,0.1-6.3,0.1c-0.1,0-0.3,0-0.4,0c-2,0-4,0.1-6,0.1c-0.4,0-0.9,0-1.3,0c-3.6,0-7.3,0.1-11,0.1c-0.4,0-0.9,0-1.3,0
			c-3.3,0-6.7,0-10.1,0c-1.1,0-2.2,0-3.3,0c-2.6,0-5.2,0-7.8,0c-0.5,0-1.1,0-1.6,0c-3.3,0-6.6,0-9.9-0.1c-0.4,0-0.9,0-1.3,0
			c-3.4,0-6.7-0.1-10.1-0.1c-0.4,0-0.8,0-1.3,0c-3.5-0.1-6.9-0.1-10.3-0.2c-0.3,0-0.7,0-1,0c-3.6-0.1-7.1-0.2-10.6-0.3
			c-0.2,0-0.4,0-0.6,0c-3.8-0.1-7.5-0.2-11.2-0.3c-0.5,0-0.9,0-1.3,0c-1.4,0-2.7-0.1-4.1-0.1c-0.7,0-1.3-0.1-2-0.1
			c-1.1,0-2.3-0.1-3.4-0.1c-0.7,0-1.4-0.1-2.1-0.1c-1.1,0-2.3-0.1-3.4-0.1c-0.7,0-1.4-0.1-2.1-0.1c-1.1,0-2.2-0.1-3.3-0.2
			c-0.7,0-1.4-0.1-2.1-0.1c-1.2-0.1-2.4-0.1-3.6-0.2c-0.6,0-1.2-0.1-1.8-0.1c-1.6-0.1-3.1-0.2-4.7-0.3c-0.2,0-0.4,0-0.6,0
			c-1.8-0.1-3.6-0.2-5.4-0.3c-0.5,0-1-0.1-1.6-0.1c-1.3-0.1-2.5-0.2-3.8-0.2c-0.6,0-1.2-0.1-1.7-0.1c-1.4-0.1-2.9-0.2-4.3-0.3
			c-0.4,0-0.8-0.1-1.2-0.1c-1.8-0.1-3.6-0.3-5.3-0.4c-0.3,0-0.7-0.1-1-0.1c-1.6-0.1-3.2-0.2-4.8-0.4c-0.5,0-0.9-0.1-1.4-0.1
			c-1.8-0.1-3.7-0.3-5.5-0.5c-0.2,0-0.4,0-0.7-0.1c-2-0.2-4-0.4-5.9-0.5c-0.3,0-0.5,0-0.8-0.1c-2-0.2-3.9-0.4-5.9-0.6
			c-0.5,0-1-0.1-1.4-0.1c-0.7-0.1-1.5-0.2-2.2-0.2c-0.6-0.1-1.2-0.1-1.7-0.2c-0.7-0.1-1.4-0.2-2.1-0.2c-0.6-0.1-1.1-0.1-1.7-0.2
			c-0.7-0.1-1.4-0.2-2.1-0.2c-0.5-0.1-1.1-0.1-1.6-0.2c-0.7-0.1-1.4-0.2-2.1-0.3c-0.5-0.1-1.1-0.1-1.6-0.2c-0.5-0.1-0.9-0.1-1.4-0.2
			c-0.6-0.1-1.3-0.2-1.9-0.3c-0.5-0.1-0.9-0.1-1.4-0.2c-0.6-0.1-1.2-0.2-1.8-0.2c-0.5-0.1-0.9-0.1-1.4-0.2c-0.6-0.1-1.2-0.2-1.7-0.3
			c-0.4-0.1-0.9-0.1-1.3-0.2c-0.6-0.1-1.1-0.2-1.7-0.3c-0.4-0.1-0.9-0.1-1.3-0.2c-0.6-0.1-1.1-0.2-1.7-0.3c-0.4-0.1-0.8-0.1-1.2-0.2
			c-0.6-0.1-1.1-0.2-1.7-0.3c-0.4-0.1-0.7-0.1-1.1-0.2c-0.6-0.1-1.2-0.2-1.8-0.3c-0.3-0.1-0.6-0.1-0.9-0.2c-0.9-0.2-1.7-0.3-2.6-0.5
			c-0.1,0-0.1,0-0.1,0c-0.8-0.2-1.6-0.3-2.3-0.5c-0.3-0.1-0.5-0.1-0.8-0.2c-0.5-0.1-1.1-0.2-1.6-0.3c-0.3-0.1-0.6-0.1-0.9-0.2
			c-0.5-0.1-0.9-0.2-1.4-0.3c-0.3-0.1-0.6-0.1-0.9-0.2c-0.4-0.1-0.8-0.2-1.3-0.3c-0.3-0.1-0.6-0.1-0.9-0.2c-0.4-0.1-0.8-0.2-1.2-0.3
			c-0.3-0.1-0.6-0.2-0.9-0.2c-0.4-0.1-0.7-0.2-1.1-0.3c-0.3-0.1-0.6-0.2-0.8-0.2c-0.4-0.1-0.7-0.2-1-0.3s-0.5-0.2-0.8-0.2
			c-0.3-0.1-0.7-0.2-1-0.3c-0.2-0.1-0.5-0.1-0.7-0.2c-0.3-0.1-0.7-0.2-1-0.3c-0.2-0.1-0.4-0.1-0.6-0.2c-0.4-0.1-0.8-0.3-1.1-0.4
			c-0.1,0-0.2-0.1-0.4-0.1c-0.5-0.2-0.9-0.4-1.4-0.6c-0.1,0-0.2-0.1-0.3-0.1c-0.3-0.1-0.6-0.3-0.9-0.4c-0.1-0.1-0.3-0.1-0.4-0.2
			c-0.2-0.1-0.5-0.2-0.7-0.4c-0.1-0.1-0.3-0.2-0.4-0.2c-0.2-0.1-0.4-0.2-0.6-0.3c-0.1-0.1-0.3-0.2-0.4-0.2c-0.2-0.1-0.3-0.2-0.5-0.3
			c-0.1-0.1-0.2-0.2-0.3-0.2c-0.1-0.1-0.3-0.2-0.4-0.3S7,230.1,6.9,230s-0.2-0.2-0.3-0.3c-0.1-0.1-0.2-0.2-0.2-0.3
			c-0.1-0.1-0.2-0.2-0.3-0.3C6,229,6,228.9,5.9,228.9c-0.1-0.1-0.1-0.2-0.2-0.4c0-0.1-0.1-0.2-0.1-0.2c-0.1-0.1-0.1-0.3-0.1-0.4
			c0-0.1,0-0.1-0.1-0.2c0-0.2-0.1-0.4-0.1-0.6v23.3c0,0.2,0,0.4,0.1,0.6c0,0.1,0,0.1,0.1,0.2c0,0.1,0.1,0.3,0.1,0.4
			c0,0.1,0.1,0.2,0.1,0.2c0.1,0.1,0.1,0.2,0.2,0.4c0.1,0.1,0.1,0.2,0.2,0.2c0.1,0.1,0.2,0.2,0.3,0.3c0.1,0.1,0.2,0.2,0.2,0.3
			c0.1,0.1,0.2,0.2,0.3,0.3c0.1,0.1,0.2,0.2,0.3,0.3c0.1,0.1,0.3,0.2,0.4,0.3s0.2,0.2,0.3,0.2c0.2,0.1,0.3,0.2,0.5,0.3
			c0.1,0.1,0.3,0.2,0.4,0.2c0.2,0.1,0.4,0.2,0.6,0.3c0.1,0.1,0.3,0.2,0.4,0.2c0.2,0.1,0.5,0.2,0.7,0.4c0.1,0.1,0.3,0.1,0.4,0.2
			c0.3,0.1,0.6,0.3,0.9,0.4c0.1,0,0.2,0.1,0.3,0.1c0.4,0.2,0.9,0.4,1.4,0.6c0.1,0,0.2,0.1,0.4,0.1c0.4,0.1,0.7,0.3,1.1,0.4
			c0.2,0.1,0.4,0.1,0.6,0.2c0.3,0.1,0.7,0.2,1,0.3c0.2,0.1,0.5,0.1,0.7,0.2c0.3,0.1,0.7,0.2,1,0.3c0.3,0.1,0.5,0.2,0.8,0.2
			c0.3,0.1,0.7,0.2,1.1,0.3c0.3,0.1,0.6,0.2,0.8,0.2c0.4,0.1,0.7,0.2,1.1,0.3c0.3,0.1,0.6,0.2,0.9,0.2c0.4,0.1,0.8,0.2,1.2,0.3
			c0.3,0.1,0.6,0.1,0.9,0.2c0.4,0.1,0.8,0.2,1.3,0.3c0.3,0.1,0.6,0.1,0.9,0.2c0.4,0.1,0.9,0.2,1.4,0.3c0.3,0.1,0.6,0.1,0.9,0.2
			c0.5,0.1,1.1,0.2,1.6,0.3c0.3,0.1,0.5,0.1,0.8,0.2c0.8,0.2,1.6,0.3,2.4,0.5h0.1c0.8,0.2,1.7,0.3,2.6,0.5c0.3,0.1,0.6,0.1,0.9,0.2
			c0.6,0.1,1.2,0.2,1.8,0.3c0.4,0.1,0.7,0.1,1.1,0.2c0.6,0.1,1.1,0.2,1.7,0.3c0.4,0.1,0.8,0.1,1.2,0.2c0.6,0.1,1.1,0.2,1.7,0.3
			c0.4,0.1,0.8,0.1,1.3,0.2c0.6,0.1,1.1,0.2,1.7,0.3c0.4,0.1,0.9,0.1,1.3,0.2c0.6,0.1,1.2,0.2,1.7,0.3c0.5,0.1,0.9,0.1,1.4,0.2
			c0.6,0.1,1.2,0.2,1.8,0.2c0.5,0.1,0.9,0.1,1.4,0.2c0.6,0.1,1.3,0.2,1.9,0.3c0.4,0.1,0.9,0.1,1.4,0.2c0.1,0,0.3,0,0.4,0.1
			c0.4,0,0.8,0.1,1.2,0.1c0.7,0.1,1.4,0.2,2.1,0.3c0.5,0.1,1.1,0.1,1.6,0.2c0.7,0.1,1.4,0.2,2.1,0.2c0.6,0.1,1.2,0.1,1.7,0.2
			c0.7,0.1,1.4,0.2,2.1,0.2c0.6,0.1,1.2,0.1,1.8,0.2c0.7,0.1,1.4,0.2,2.2,0.2c0.3,0,0.6,0.1,0.9,0.1c0.2,0,0.4,0,0.6,0.1
			c1.9,0.2,3.9,0.4,5.9,0.6c0.3,0,0.5,0.1,0.8,0.1c1.9,0.2,3.9,0.4,5.9,0.5c0.2,0,0.3,0,0.5,0c0.1,0,0.1,0,0.2,0
			c1.8,0.2,3.6,0.3,5.4,0.5c0.5,0,0.9,0.1,1.4,0.1c1.6,0.1,3.2,0.3,4.8,0.4c0.2,0,0.5,0,0.7,0.1c0.1,0,0.2,0,0.3,0
			c1.8,0.1,3.5,0.3,5.3,0.4c0.4,0,0.8,0.1,1.2,0.1c1.4,0.1,2.8,0.2,4.3,0.3c0.3,0,0.6,0,0.9,0.1c0.3,0,0.6,0,0.9,0.1
			c1.3,0.1,2.5,0.2,3.8,0.2c0.5,0,1,0.1,1.6,0.1c1.8,0.1,3.6,0.2,5.4,0.3c0,0,0,0,0.1,0c0.2,0,0.4,0,0.6,0c1.5,0.1,3,0.2,4.6,0.2
			c0.6,0,1.2,0.1,1.8,0.1c1.2,0.1,2.4,0.1,3.6,0.2c0.3,0,0.6,0,0.8,0c0.4,0,0.8,0,1.2,0.1c1.1,0.1,2.2,0.1,3.2,0.2
			c0.7,0,1.4,0.1,2.2,0.1c1.1,0,2.2,0.1,3.3,0.1c0.5,0,0.9,0,1.4,0.1c0.2,0,0.5,0,0.7,0c1.1,0,2.2,0.1,3.4,0.1c0.7,0,1.4,0.1,2,0.1
			c1.3,0,2.6,0.1,4,0.1c0.4,0,0.9,0,1.3,0h0.1c3.7,0.1,7.4,0.2,11.2,0.3c0.1,0,0.1,0,0.2,0c0.1,0,0.3,0,0.4,0
			c3.5,0.1,7,0.2,10.6,0.3c0.1,0,0.3,0,0.4,0c0.2,0,0.4,0,0.7,0c3.4,0.1,6.8,0.1,10.2,0.2c0.2,0,0.4,0,0.6,0c0.2,0,0.5,0,0.7,0
			c3.3,0.1,6.7,0.1,10,0.1c0.2,0,0.4,0,0.6,0c0.2,0,0.5,0,0.7,0c3.3,0,6.5,0.1,9.9,0.1c0.2,0,0.4,0,0.7,0s0.6,0,1,0
			c2.6,0,5.2,0,7.8,0c0.9,0,1.7,0,2.6,0c0.2,0,0.5,0,0.7,0c3.4,0,6.7,0,10,0c0.2,0,0.5,0,0.7,0s0.4,0,0.6,0c3.7,0,7.4-0.1,11-0.1
			c0.2,0,0.4,0,0.6,0c0.2,0,0.5,0,0.7,0c2,0,3.9-0.1,5.9-0.1c0.2,0,0.3,0,0.5,0c2.1,0,4.2-0.1,6.3-0.1c0.2,0,0.4,0,0.6,0
			s0.4,0,0.6,0c3.5-0.1,6.9-0.2,10.3-0.2c0.4,0,0.8,0,1.2,0c3.3-0.1,6.7-0.2,10-0.3c0.2,0,0.4,0,0.6,0c0.3,0,0.5,0,0.8,0
			c2.3-0.1,4.7-0.2,7-0.2c0.2,0,0.4,0,0.7,0c2.1-0.1,4.3-0.2,6.4-0.3c0.5,0,1,0,1.6-0.1c2.3-0.1,4.5-0.2,6.7-0.3
			c0.4,0,0.7,0,1.1-0.1c2-0.1,3.9-0.2,5.9-0.3c0.3,0,0.6,0,0.9,0c0.2,0,0.3,0,0.5,0c2.3-0.1,4.6-0.2,6.9-0.4c0.4,0,0.9-0.1,1.3-0.1
			c2.3-0.1,4.7-0.3,7-0.4c0.1,0,0.2,0,0.4,0c2.2-0.1,4.4-0.3,6.6-0.4c0.4,0,0.8-0.1,1.1-0.1c2.2-0.2,4.3-0.3,6.4-0.5
			c0.2,0,0.4,0,0.6,0c0.3,0,0.7-0.1,1-0.1c1.1-0.1,2.3-0.2,3.4-0.3c0.6,0,1.1-0.1,1.6-0.1c1.3-0.1,2.6-0.2,3.9-0.3
			c0.3,0,0.7-0.1,1-0.1c1.6-0.1,3.2-0.3,4.7-0.4c0.4,0,0.8-0.1,1.2-0.1c1.1-0.1,2.3-0.2,3.4-0.3c0.2,0,0.5,0,0.7-0.1
			c0.4,0,0.8-0.1,1.1-0.1c0.7-0.1,1.3-0.1,2-0.2s1.3-0.1,1.9-0.2s1.3-0.1,1.9-0.2s1.3-0.1,1.9-0.2s1.3-0.1,1.9-0.2s1.2-0.1,1.9-0.2
			c0.6-0.1,1.2-0.1,1.8-0.2c0.3,0,0.5-0.1,0.8-0.1c0.2,0,0.4,0,0.6-0.1c1.8-0.2,3.5-0.4,5.2-0.6c0.2,0,0.3,0,0.5-0.1
			c1.6-0.2,3.2-0.4,4.8-0.6c0.2,0,0.3,0,0.5-0.1c0.1,0,0.2,0,0.2,0c1.4-0.2,2.8-0.4,4.2-0.6c0.3,0,0.6-0.1,0.9-0.1
			c1.1-0.2,2.2-0.3,3.3-0.5c0.2,0,0.4-0.1,0.6-0.1c0.1,0,0.2,0,0.3,0c1.2-0.2,2.4-0.4,3.5-0.6c0.2,0,0.4-0.1,0.6-0.1
			c1-0.2,1.9-0.3,2.8-0.5c0.2,0,0.3-0.1,0.5-0.1s0.4-0.1,0.6-0.1c0.7-0.1,1.4-0.3,2.1-0.4c0.3-0.1,0.6-0.1,1-0.2
			c0.9-0.2,1.7-0.4,2.6-0.5c0.1,0,0.2,0,0.3-0.1l0,0c0.9-0.2,1.8-0.4,2.6-0.6c0.3-0.1,0.5-0.1,0.8-0.2c0.6-0.1,1.2-0.3,1.7-0.4
			c0.1,0,0.2-0.1,0.3-0.1c0.2,0,0.4-0.1,0.6-0.1c0.5-0.1,0.9-0.2,1.4-0.4c0.3-0.1,0.6-0.2,0.9-0.2c0.4-0.1,0.9-0.2,1.3-0.4
			c0.2,0,0.4-0.1,0.5-0.1s0.2-0.1,0.3-0.1c0.4-0.1,0.8-0.2,1.2-0.4c0.2-0.1,0.5-0.2,0.7-0.2c0.4-0.1,0.9-0.3,1.3-0.4
			c0.1-0.1,0.3-0.1,0.5-0.2c0,0,0,0,0.1,0c0.6-0.2,1.1-0.4,1.6-0.6c0.1,0,0.2-0.1,0.2-0.1c0.4-0.2,0.9-0.3,1.3-0.5h0.1
			c0.1-0.1,0.2-0.1,0.4-0.2c0.3-0.1,0.6-0.3,0.9-0.4c0.2-0.1,0.3-0.2,0.5-0.2c0.3-0.1,0.5-0.3,0.7-0.4c0.1,0,0.1-0.1,0.2-0.1
			s0.2-0.1,0.2-0.1c0.2-0.1,0.4-0.3,0.6-0.4c0.1-0.1,0.3-0.2,0.4-0.3c0.2-0.1,0.4-0.3,0.6-0.4c0.1-0.1,0.2-0.1,0.2-0.2
			c0,0,0,0,0.1-0.1c0.2-0.2,0.4-0.4,0.6-0.5c0,0,0.1-0.1,0.2-0.1c0.2-0.2,0.4-0.5,0.5-0.7l0,0c0,0,0-0.1,0.1-0.1
			c0.1-0.2,0.2-0.4,0.3-0.6c0-0.1,0.1-0.2,0.1-0.2c0.1-0.2,0.1-0.3,0.1-0.5v-0.1c0-0.1,0-0.1,0-0.2v-23.3
			C445,227.3,445,227.4,445,227.5z"/>
		<path class="st0" d="M371.5,209.1c21.1,3.1,33.5,6.9,33.5,11c0,10.4-80.6,18.9-180,18.9s-180-8.5-180-18.9c0-4.1,12.4-7.9,33.5-11
			C33.4,213.5,5,220,5,227.1c0,13.4,98.5,24.2,220,24.2s220-10.8,220-24.2C445,220,416.6,213.5,371.5,209.1z"/>
	</g>
	<g>
		<path class="st0" d="M180.3,336.9l-21.5-28.6c0,0,11.5-12.9,53.7-15.8s57.3-2.9,60.9,0s3.6,9.3-4.3,10.7
			c-7.9,1.4-32.9,4.3-31.5,10s5,10.7,21.5,7.9s43-21.5,43-21.5s13.6-4.3,5.7,5.7s-35.1,32.2-54.4,38.7c0,0-13.6,2.1-27.2-2.9
			S194.6,333.3,180.3,336.9z"/>
		<path class="st0" d="M178.5,345.1L172,350c-1.7,1.3-4,0.9-5.3-0.7l-26-34.3c-1.3-1.7-0.9-4,0.7-5.3l6.5-4.9c1.7-1.3,4-0.9,5.3,0.7
			l26,34.3C180.5,341.5,180.1,343.9,178.5,345.1z"/>
	</g>
	<g>
		<path class="st0" d="M397.4,137.9c1.5,1.1,2.6,3.3,3.3,6.6c0.7,3.3,0.2,6.2-1.6,8.8c-5.7,8.2-11.7,16.1-18.1,23.5
			c-6.4,7.5-13.4,14.7-21.1,21.6c-3.1,2.9-6.8,6.1-11,9.4c-4.2,3.4-8.7,6.3-13.4,8.9c-4.7,2.6-9.7,4.4-14.8,5.6
			c-5.1,1.2-10.1,1.1-15.1-0.1c-4.9-1.3-9.1-3.9-12.5-7.8c-3.4-3.9-5.4-8.8-6.2-14.6c-0.4-7.1,0-13.9,1.1-20.3
			c1.1-6.4,2.6-12.5,4.7-18.3c2.2-6,4.4-11.6,6.6-16.7c2.2-5.1,4.2-9.7,6-13.7s3.2-7.3,4.2-10c1-2.6,1.4-4.4,1.2-5.3
			c-0.5-1.5-2.4-1.5-5.5-0.3c-3.1,1.3-7,3.7-11.6,7.1c-4.7,3.5-9.8,7.8-15.5,12.9s-11.1,10.8-16.4,17c-2.2,2.6-5.2,6.2-8.9,10.8
			c-3.7,4.7-7.4,9.8-11,15.3c-3.6,5.6-6.7,11.2-9.4,17c-2.7,5.7-4.4,11.1-4.9,16c-0.2,0.9-0.5,1.8-1,2.7s-1.3,1.6-2.6,1.9
			c-9.1,2.4-16.5,1.8-22-1.6c-5.6-3.5-8.2-9.5-7.8-18.1c0.4-3.8,1-8,2.1-12.5c1-4.5,2.1-8.9,3.3-13.4s2.5-8.8,4-12.9
			c1.5-4.1,2.7-7.8,3.8-11.1c3.1-9.5,4.1-16.2,3-20s-3.6-5.5-7.5-5.1c-3.9,0.5-8.9,2.6-14.9,6.6c-6,3.9-12.4,8.9-19.2,14.9
			c-4.9,4.4-10,9.9-15.2,16.4c-5.2,6.6-10.2,13.6-14.9,21.1s-9,15.1-12.7,22.7c-3.7,7.7-6.5,14.8-8.3,21.4c0,0.4-0.4,0.6-1.2,0.7
			c-0.8,0.1-2.3,0-4.5-0.4c-1.6-0.2-3.4-0.8-5.3-1.9c-1.9-1.1-3.6-2.4-5.2-3.8c-1.5-1.5-2.8-3.1-3.7-4.8c-0.9-1.7-1.2-3.4-0.8-5.1
			c2.7-15.9,6.2-31.4,10.4-46.7c4.2-15.2,9-30.6,14.5-46.1c2-4.9,4-9.9,5.9-14.9c1.9-5,4.1-10.1,6.4-15.2c0.7-1.3,2.6-1.3,5.5,0
			c12.2,6.6,20.4,12.1,24.6,16.6c4.2,4.5,5.7,8,4.4,10.5c-1.6,2.6-3.3,5.2-4.9,7.9c-1.6,2.7-3.2,5.5-4.7,8.2
			c7.3-7.8,15.2-15.1,23.7-21.9c8.5-6.7,18-12.5,28.6-17.2c4.2-1.5,8.3-2.3,12.5-2.6c4.1-0.3,8.5,0.6,13.3,2.6
			c3.6,2.4,6.1,5.3,7.4,8.8c1.3,3.5,1.9,7.1,1.9,11c0,3.8-0.5,7.7-1.5,11.6s-2,7.6-2.9,11.1c-1.5,4.6-2.6,8.2-3.6,11
			c-0.9,2.7-1.6,4.8-2.1,6.3s-0.8,2.5-1,3.1s-0.4,1.2-0.5,1.8c3.1-4,6.3-8,9.6-11.9s6.8-7.7,10.4-11.4c5.3-5.7,10.7-11.1,16.2-16.3
			c5.5-5.2,11.1-9.9,16.8-14c5.7-4.1,11.6-7.4,17.7-9.9c6-2.5,12.2-3.8,18.6-4c7.5-0.2,13.5,1.3,18.1,4.4s7.4,7.3,8.5,12.6
			c0.5,6.2-0.3,12.3-2.5,18.3c-2.2,6-4.9,12.6-8.2,19.7c-3.3,8-6.3,15.8-9.2,23.4c-2.8,7.6-4.4,14.2-4.8,19.8
			c-0.4,5.5,0.5,8.5,2.5,9s4.5-0.1,7.5-1.9c3-1.8,6.2-4.3,9.7-7.4c3.5-3.1,6.4-5.6,8.8-7.4c7.3-5.8,14.2-12.2,20.8-19
			c6.6-6.8,12.8-14.1,18.6-21.8c0.4-0.4,0.8-0.5,1.2-0.5C395.5,136.8,396.3,137.1,397.4,137.9z"/>
	</g>
</g>
</svg>
